<svg width="87" height="44" viewBox="0 0 87 44" fill="none" xmlns="http://www.w3.org/2000/svg">
<path d="M0 22C0 9.84974 9.84974 0 22 0H65C77.1503 0 87 9.84974 87 22V22C87 34.1503 77.1503 44 65 44H22C9.84973 44 0 34.1503 0 22V22Z" fill="#E0F4F5"/>
<path d="M9.25151 32.9111L17.5115 21.9911L9.43151 11.3111H13.6715L19.5915 19.2311L25.4515 11.3111H29.6915L21.6115 21.9911L29.8915 32.9111H25.6315L19.5915 24.7511L13.5115 32.9111H9.25151ZM30.2968 37.3711V34.4311H56.6968V37.3711H30.2968ZM57.1031 32.9111L65.3631 21.9911L57.2831 11.3111H61.5231L67.4431 19.2311L73.3031 11.3111H77.5431L69.4631 21.9911L77.7431 32.9111H73.4831L67.4431 24.7511L61.3631 32.9111H57.1031Z" fill="#122A2F"/>
</svg>
